<svg width="221" height="41" viewBox="0 0 221 41" fill="none" xmlns="http://www.w3.org/2000/svg">
<g clip-path="url(#clip0_544_40)">
<path d="M0.472627 5.28554L0.319442 6.20213C-0.13555 8.9246 1.67636 11.5049 4.36645 11.9653L28.8349 16.1536C31.525 16.6141 34.0746 14.7804 34.5296 12.0579L34.6827 11.1413C35.1377 8.41886 33.3258 5.83859 30.6357 5.37812L6.16731 1.18983C3.47722 0.729367 0.92762 2.56308 0.472627 5.28554Z" fill="#638E30"/>
<path opacity="0.56" d="M4.47139 19.4748L4.37498 20.3992C4.0886 23.1451 6.05595 25.606 8.76918 25.8959L28.3556 27.9881C31.0689 28.2779 33.5005 26.2869 33.7869 23.541L33.8833 22.6165C34.1697 19.8706 32.2023 17.4097 29.4891 17.1199L9.90267 15.0277C7.18944 14.7379 4.75777 16.7289 4.47139 19.4748Z" fill="#638E30"/>
<path opacity="0.25" d="M28.2504 28.6611H18.585C15.8567 28.6611 13.645 30.8995 13.645 33.6606V34.5902C13.645 37.3513 15.8567 39.5897 18.585 39.5897H28.2504C30.9787 39.5897 33.1904 37.3513 33.1904 34.5902V33.6606C33.1904 30.8995 30.9787 28.6611 28.2504 28.6611Z" fill="#638E30"/>
<path d="M58.1657 30.5621C58.1414 30.6854 58.0776 30.7971 57.9842 30.88C57.9016 30.9374 57.8031 30.9666 57.703 30.9635C57.6005 30.9663 57.5006 30.9306 57.4225 30.8633C57.3359 30.7816 57.2731 30.6774 57.241 30.5621L51.8894 12.4425H45.9102L52.9467 33.1368C53.2636 34.1125 53.9136 34.9419 54.78 35.4765C55.6661 35.9997 56.6774 36.2658 57.703 36.2459C58.7382 36.264 59.7574 35.9857 60.6432 35.4431C61.4976 34.9141 62.1408 34.0977 62.46 33.1368L69.4636 12.4425H63.6163L58.1657 30.5621Z" fill="black"/>
<path d="M79.6371 31.1665H83.6336V35.8425H70.1235V31.1665H74.12V17.1257H70.1235V12.443H83.5817L83.6012 17.1257H79.6371V31.1665Z" fill="black"/>
<path d="M94.1416 17.1256V29.2594C94.1352 29.7574 94.3245 30.2376 94.6679 30.5944C94.8345 30.7797 95.0385 30.9267 95.2661 31.0254C95.4936 31.1241 95.7395 31.1723 95.987 31.1666H97.8066V35.8425H95.7271C94.4255 35.8722 93.1405 35.5425 92.0101 34.8889C90.9641 34.2799 90.0981 33.3989 89.5017 32.3372C88.8883 31.2482 88.5742 30.0129 88.5919 28.7596V17.1256H84.5824L84.563 12.4431H100.38V17.1256H94.1416Z" fill="black"/>
<path d="M104.743 13.3289C103.726 13.9014 102.873 14.7304 102.266 15.7354C101.641 16.7776 101.321 17.9771 101.341 19.1958C101.339 20.1015 101.548 20.9949 101.952 21.8033C102.356 22.6251 102.924 23.3536 103.62 23.9432C102.9 24.5588 102.31 25.3147 101.886 26.166C101.457 27.0205 101.236 27.9662 101.242 28.9244C101.222 30.1663 101.548 31.3887 102.183 32.4516C102.816 33.5004 103.707 34.3646 104.77 34.9594C105.833 35.5543 107.03 35.8593 108.244 35.8446H117.923V31.1305H109.203C108.766 31.1368 108.335 31.0336 107.947 30.83C107.67 30.6758 107.427 30.4668 107.231 30.2154C107.035 29.964 106.892 29.6754 106.808 29.3666C106.725 29.0579 106.704 28.7353 106.746 28.4182C106.789 28.101 106.894 27.7958 107.055 27.5205C107.278 27.1612 107.584 26.8626 107.947 26.6509C108.328 26.4267 108.762 26.3113 109.203 26.3169H116.8V21.6363H109.038C108.635 21.6403 108.238 21.5428 107.881 21.3524C107.533 21.1676 107.242 20.89 107.039 20.5496C106.833 20.1977 106.725 19.7965 106.725 19.3878C106.725 18.9791 106.833 18.5779 107.039 18.226C107.253 17.8865 107.549 17.6073 107.898 17.4145C108.248 17.2217 108.64 17.1215 109.038 17.1233H117.923V12.4426H108.178C106.976 12.4287 105.792 12.7343 104.743 13.3289Z" fill="black"/>
<path d="M151.254 30.5956C150.91 30.2382 150.72 29.7573 150.726 29.2584V17.1233H156.969V12.4426H138.9V12.4454H136.72V12.4426H126.512C125.289 12.4287 124.084 12.734 123.011 13.3289C121.97 13.9033 121.103 14.7522 120.5 15.7855C119.863 16.9141 119.543 18.1976 119.575 19.497C119.539 20.8086 119.877 22.103 120.55 23.2246C121.185 24.2478 122.096 25.0655 123.176 25.5809C124.323 26.1261 125.576 26.4007 126.843 26.3837H130.411C130.83 26.3782 131.243 26.494 131.6 26.7177C131.946 26.9348 132.235 27.2331 132.442 27.5873C132.653 27.952 132.762 28.3682 132.756 28.7909C132.759 29.2024 132.65 29.6069 132.442 29.9604C132.235 30.3148 131.946 30.6132 131.6 30.83C131.243 31.0539 130.83 31.1698 130.411 31.1639H120.534V35.8446H131.203C132.426 35.8582 133.632 35.5532 134.705 34.959C135.771 34.3593 136.647 33.4667 137.232 32.3842C137.892 31.125 138.216 29.7138 138.173 28.2893C138.202 27.0402 137.887 25.8077 137.265 24.7287C136.655 23.7107 135.774 22.8878 134.722 22.355C133.525 21.7624 132.205 21.47 130.873 21.5027H127.14C126.764 21.5039 126.395 21.4039 126.07 21.2129C125.744 21.022 125.475 20.7469 125.29 20.416C125.111 20.0828 125.02 19.7085 125.026 19.3294C125.022 18.9451 125.113 18.5658 125.29 18.226C125.465 17.8927 125.729 17.6151 126.05 17.4238C126.379 17.2238 126.756 17.1198 127.14 17.1233H131.937V17.1259H143.717V17.1233H145.176V28.7575C145.16 30.0102 145.474 31.2446 146.085 32.3341C146.683 33.3967 147.549 34.2793 148.595 34.8915C149.726 35.5433 151.01 35.8727 152.312 35.8446H154.392V31.1639H152.576C152.328 31.17 152.082 31.1225 151.854 31.0244C151.626 30.9264 151.422 30.7802 151.254 30.5956Z" fill="black"/>
<path d="M172.33 15.1198C172.015 14.1406 171.356 13.3123 170.478 12.7917C169.593 12.2847 168.59 12.0259 167.573 12.042C166.552 12.0274 165.547 12.2982 164.668 12.8246C163.803 13.36 163.149 14.1829 162.817 15.1527L155.317 35.8425H161.101L162.622 31.331H172.428L173.883 35.8425H179.862L172.33 15.1198ZM164.038 26.6814L167.177 17.3558C167.193 17.2526 167.246 17.159 167.326 17.0928C167.402 17.0219 167.503 16.9841 167.606 16.9875C167.705 16.9866 167.803 17.0165 167.885 17.073C167.973 17.1467 168.036 17.2452 168.067 17.3558L171.011 26.6814H164.038Z" fill="black"/>
<path d="M186.187 13.3288C184.742 13.8782 183.426 14.7265 182.323 15.8194C181.26 16.8796 180.423 18.148 179.862 19.547C178.717 22.5018 178.717 25.7852 179.862 28.74C180.421 30.1361 181.252 31.404 182.306 32.4682C183.406 33.5654 184.723 34.4142 186.171 34.9589C187.809 35.5702 189.545 35.8705 191.291 35.8445H194.859V31.1638H191.423C190.456 31.177 189.496 30.9954 188.599 30.6295C187.783 30.2946 187.044 29.7918 186.43 29.153C185.816 28.5143 185.34 27.7534 185.031 26.9186C184.393 25.1251 184.393 23.1625 185.031 21.369C185.339 20.5341 185.816 19.7731 186.43 19.1343C187.044 18.4955 187.783 17.9928 188.599 17.6581C189.496 17.292 190.456 17.1102 191.423 17.1231H194.859V12.4425H191.291C189.55 12.4153 187.82 12.7159 186.187 13.3288Z" fill="black"/>
<path d="M215.175 31.1973C214.985 31.1994 214.798 31.1535 214.63 31.0637C214.468 30.9793 214.344 30.8361 214.283 30.6629L211.772 25.3137C212.911 24.6074 213.863 23.6322 214.548 22.4718C215.261 21.2596 215.627 19.8708 215.605 18.4603V12.4425H210.055V18.4269C210.069 19.0816 209.91 19.7282 209.593 20.299C209.298 20.8205 208.855 21.24 208.321 21.5026C207.77 21.7723 207.165 21.9094 206.553 21.9034H202.721V12.4425H197.171V35.8445H202.721V26.584H206.256L209.394 33.2036C209.769 34.0044 210.366 34.6778 211.112 35.1425C211.861 35.6107 212.841 35.8447 214.052 35.8445H217.256V31.1973H215.175Z" fill="black"/>
<path d="M219.558 12.4425C219.843 12.4426 220.122 12.5283 220.359 12.6889C220.596 12.8494 220.781 13.0775 220.89 13.3444C220.999 13.6113 221.028 13.9048 220.972 14.188C220.916 14.4712 220.779 14.7313 220.577 14.9354C220.375 15.1395 220.118 15.2783 219.838 15.3345C219.558 15.3906 219.268 15.3615 219.004 15.2508C218.741 15.14 218.516 14.9527 218.357 14.7125C218.199 14.4722 218.114 14.1898 218.115 13.9011C218.116 13.5142 218.268 13.1435 218.539 12.8701C218.809 12.5967 219.176 12.443 219.558 12.4425ZM218.337 13.9025C218.337 14.1468 218.408 14.3856 218.542 14.5888C218.677 14.7919 218.867 14.9502 219.09 15.0436C219.313 15.1371 219.559 15.1615 219.795 15.1138C220.032 15.0661 220.25 14.9484 220.42 14.7757C220.591 14.6029 220.707 14.3828 220.754 14.1431C220.801 13.9035 220.777 13.6552 220.685 13.4294C220.592 13.2037 220.436 13.0108 220.235 12.8751C220.035 12.7394 219.799 12.6669 219.557 12.6669C219.397 12.6668 219.238 12.6986 219.09 12.7607C218.942 12.8227 218.807 12.9137 218.694 13.0285C218.58 13.1432 218.49 13.2795 218.429 13.4295C218.368 13.5795 218.336 13.7402 218.337 13.9025Z" fill="black"/>
<path d="M219.835 14.0642L220.157 14.5762H220.146C220.079 14.5762 220.013 14.5761 219.946 14.5764C219.942 14.5767 219.939 14.576 219.936 14.5744C219.933 14.5729 219.931 14.5704 219.93 14.5675C219.83 14.4084 219.729 14.2493 219.629 14.0903C219.628 14.0873 219.625 14.0848 219.622 14.0831C219.619 14.0815 219.616 14.0808 219.612 14.0811C219.524 14.0814 219.436 14.0813 219.348 14.0813H219.336V14.5756H219.114V13.229C219.117 13.2288 219.119 13.2285 219.122 13.2285C219.314 13.2285 219.505 13.2281 219.697 13.2288C219.761 13.227 219.824 13.2357 219.885 13.2546C219.938 13.2693 219.989 13.2925 220.035 13.3234C220.1 13.3674 220.147 13.4338 220.167 13.5103C220.176 13.5499 220.183 13.5901 220.187 13.6305C220.19 13.6848 220.184 13.7392 220.17 13.7917C220.163 13.8283 220.148 13.8631 220.127 13.8939C220.079 13.9627 220.009 14.0132 219.929 14.0375C219.901 14.0465 219.871 14.0538 219.842 14.0619L219.835 14.0642ZM219.336 13.8917H219.343C219.448 13.8917 219.553 13.8919 219.657 13.8914C219.679 13.892 219.701 13.8903 219.723 13.8862C219.755 13.8788 219.787 13.8674 219.819 13.858C219.842 13.8526 219.863 13.8424 219.881 13.8282C219.913 13.8039 219.938 13.7709 219.952 13.733C219.968 13.6846 219.971 13.633 219.961 13.5831C219.956 13.5478 219.939 13.5157 219.911 13.4931C219.887 13.4744 219.861 13.4578 219.836 13.4415C219.817 13.43 219.796 13.4229 219.775 13.4204C219.76 13.4185 219.745 13.4165 219.729 13.4148C219.708 13.4115 219.687 13.4093 219.665 13.4082C219.559 13.4074 219.452 13.4077 219.346 13.4077C219.342 13.4077 219.339 13.4077 219.336 13.4077V13.8917Z" fill="black"/>
</g>
<defs>
<clipPath id="clip0_544_40">
<rect width="221" height="41" fill="white"/>
</clipPath>
</defs>
</svg>
